<svg xmlns="http://www.w3.org/2000/svg" viewBox="0 0 120 180"><defs><style>.a{fill:#fff;}.b{fill:#231f20;}</style></defs><title>esrb-teen</title><polygon class="a" points="120 0 118.26 0 1.74 0 0 0 0 1.93 0 178.08 0 180 1.74 180 118.26 180 120 180 120 178.08 120 1.93 120 0 120 0"/><path class="b" d="M118.26,1.93V178.08H1.74V1.93H118.26"/><rect class="a" x="7.61" y="8.19" width="103.95" height="29.2"/><rect class="a" x="7.56" y="43.77" width="104.01" height="107.38"/><polygon class="a" points="7.58 171.72 7.58 157.46 28.46 157.46 28.46 160.8 15.97 160.8 15.97 162.84 26.54 162.84 26.54 166.16 15.97 166.16 15.97 168.4 28.95 168.4 28.95 171.72 7.58 171.72"/><path class="a" d="M46.69,161.62a1.57,1.57,0,0,0-1.21-1,7.73,7.73,0,0,0-2.17-.26c-1.85,0-2.67.3-2.67.83,0,2.11,14.72.79,14.72,6,0,3.3-5,4.92-12,4.92-6.76,0-11.16-2.2-11.34-4.78h8a2.05,2.05,0,0,0,1.39,1.13,7.83,7.83,0,0,0,2.39.36c2.1,0,3.49-.38,3.49-1,0-2.16-14.73-.68-14.73-6.11,0-3,4.69-4.55,11.1-4.55,7.1,0,10.34,2,10.95,4.51Z"/><path class="a" d="M67.92,163.65h3.3c2.6,0,4-.38,4-1.36s-1.42-1.49-3.38-1.49H67.92Zm0,3.1v5H59.53V157.46h12.1c8.52,0,11.33,1.31,11.33,4.08,0,1.65-1.31,3-4.3,3.5,2.7.54,4.34.88,4.34,3.75,0,1.86-.11,2.5.89,2.5v.43H75.38a5.52,5.52,0,0,1-.42-2.49c0-1.87-.57-2.48-4.48-2.48Z"/><path class="a" d="M96.5,160.8v2.39H100c1.67,0,2.88-.43,2.88-1.25,0-1.12-1.65-1.14-3.41-1.14Zm0,5v2.63h3.66c2.08,0,3.64-.25,3.64-1.31,0-1.25-2-1.32-4.63-1.32Zm-8.38,5.95V157.46h12.24c5.76,0,10.35.78,10.35,3.6,0,1.47-1.72,2.54-3.35,3.1,2.77.4,4.26,1.73,4.26,3.26,0,3.18-4.36,4.3-11,4.3Z"/><polygon class="b" points="16.24 69.83 96.7 49.76 102.89 71.2 77.04 77.64 94.37 137.9 65.61 145.07 48.26 84.82 22.42 91.27 16.24 69.83"/><polygon class="b" points="87.14 14.52 93.98 14.52 101.9 23.54 101.63 19.77 101.63 14.52 108.62 14.52 108.62 31.04 101.79 31.04 93.85 22.04 93.98 25.94 94.13 31.04 87.14 31.04 87.14 14.52"/><polygon class="b" points="62.53 14.52 80.65 14.52 80.65 18.36 69.81 18.36 69.81 20.74 78.98 20.74 78.98 24.59 69.81 24.59 69.81 27.18 81.08 27.18 81.08 31.04 62.53 31.04 62.53 14.52"/><polygon class="b" points="37.06 14.52 55.19 14.52 55.19 18.36 44.34 18.36 44.34 20.74 53.51 20.74 53.51 24.59 44.34 24.59 44.34 27.18 55.62 27.18 55.62 31.04 37.06 31.04 37.06 14.52"/><polygon class="b" points="10.49 14.52 30.87 14.52 30.87 18.85 24.34 18.85 24.34 31.04 17.04 31.04 17.04 18.85 10.49 18.85 10.49 14.52"/></svg>